<?xml version="1.0" encoding="iso-8859-1"?>
<!-- Generator: Adobe Illustrator 19.0.0, SVG Export Plug-In . SVG Version: 6.00 Build 0)  -->
<svg version="1.1" id="Capa_1" xmlns="http://www.w3.org/2000/svg" xmlns:xlink="http://www.w3.org/1999/xlink" x="0px" y="0px"
	 viewBox="0 0 512 512" style="enable-background:new 0 0 512 512;" xml:space="preserve">
<path style="fill:#00D3D8;" d="M100.284,505.972c12.149,12.149,32.957,4.85,34.854-12.226l14.611-131.494l-96.593,96.593
	L100.284,505.972z"/>
<path style="fill:#87F8F4;" d="M6.028,411.716l47.128,47.128l96.593-96.593L18.254,376.862
	C1.177,378.759-6.121,399.567,6.028,411.716z"/>
<path style="fill:#00E7EC;" d="M149.748,362.252L95.958,499.33c-2.877,7.332-12.331,9.305-17.9,3.735L8.935,433.942
	c-5.569-5.569-3.596-15.023,3.735-17.9L149.748,362.252L149.748,362.252z"/>
<path style="fill:#00D3D8;" d="M505.972,100.284c12.149,12.149,4.85,32.957-12.226,34.854l-131.494,14.611l96.593-96.593
	L505.972,100.284z"/>
<path style="fill:#87F8F4;" d="M411.716,6.028l47.128,47.128l-96.593,96.593l14.611-131.494
	C378.759,1.177,399.567-6.121,411.716,6.028z"/>
<path style="fill:#00E7EC;" d="M362.252,149.748l137.078-53.79c7.332-2.877,9.305-12.331,3.735-17.9L433.942,8.935
	c-5.569-5.569-15.023-3.596-17.9,3.735L362.252,149.748L362.252,149.748z"/>
<g>
	<path style="fill:#00BAC0;" d="M445.034,72.256c-2.979-3.057-7.872-3.118-10.925-0.139l-44.382,43.268
		c-3.056,2.978-3.117,7.871-0.139,10.925c1.514,1.554,3.522,2.333,5.533,2.333c1.945,0,3.891-0.729,5.393-2.194l44.382-43.268
		C447.951,80.204,448.013,75.311,445.034,72.256z"/>
	<path style="fill:#00BAC0;" d="M111.977,386.167l-46.428,45.263c-3.056,2.978-3.117,7.871-0.139,10.925
		c1.514,1.553,3.522,2.333,5.533,2.333c1.945,0,3.891-0.729,5.393-2.194l46.428-45.263c3.056-2.978,3.117-7.871,0.139-10.925
		C119.923,383.25,115.031,383.187,111.977,386.167z"/>
</g>
<path style="fill:#00D3D8;" d="M410.068,153.969c-2.913-27.442-24.595-49.123-52.036-52.037l-84.581-8.979l0.064,0.064
	c-47.578-5.082-96.953,10.6-133.422,47.068c-36.442,36.442-52.138,85.772-47.091,133.317l8.979,84.581
	c2.913,27.442,24.595,49.123,52.037,52.036l84.581,8.979c47.545,5.048,96.875-10.649,133.317-47.091
	c36.468-36.468,52.15-85.844,47.068-133.422l0.064,0.064L410.068,153.969z"/>
<path style="fill:#00E7EC;" d="M273.514,93.018c-47.578-5.082-96.953,10.6-133.422,47.068
	c-36.442,36.442-52.138,85.772-47.091,133.317l8.979,84.581c2.692,25.356,21.411,45.78,45.888,51.039l21.182,2.249
	c47.545,5.048,96.875-10.649,133.317-47.091c36.468-36.468,52.15-85.844,47.068-133.422l0.064,0.064l-8.979-84.58
	c-2.692-25.356-21.411-45.781-45.888-51.039l-21.182-2.249L273.514,93.018z"/>
<g>
</g>
<g>
</g>
<g>
</g>
<g>
</g>
<g>
</g>
<g>
</g>
<g>
</g>
<g>
</g>
<g>
</g>
<g>
</g>
<g>
</g>
<g>
</g>
<g>
</g>
<g>
</g>
<g>
</g>
</svg>
